<?xml version="1.0" encoding="UTF-8" standalone="no"?>
<!-- Creator: CorelDRAW 2018 (64-Bit) -->

<svg
   xmlns:dc="http://purl.org/dc/elements/1.1/"
   xmlns:cc="http://creativecommons.org/ns#"
   xmlns:rdf="http://www.w3.org/1999/02/22-rdf-syntax-ns#"
   xmlns:svg="http://www.w3.org/2000/svg"
   xmlns="http://www.w3.org/2000/svg"
   xmlns:xlink="http://www.w3.org/1999/xlink"
   xmlns:sodipodi="http://sodipodi.sourceforge.net/DTD/sodipodi-0.dtd"
   xmlns:inkscape="http://www.inkscape.org/namespaces/inkscape"
   xml:space="preserve"
   width="115.79288mm"
   height="121.61477mm"
   style="clip-rule:evenodd;fill-rule:evenodd;image-rendering:optimizeQuality;shape-rendering:geometricPrecision;text-rendering:geometricPrecision"
   viewBox="0 0 11579.308 12161.503"
   version="1.1"
   id="svg96"
   sodipodi:docname="logotip-2.svg"
   inkscape:version="0.92.5 (2060ec1f9f, 2020-04-08)"><metadata
   id="metadata100"><rdf:RDF><cc:Work
       rdf:about=""><dc:format>image/svg+xml</dc:format><dc:type
         rdf:resource="http://purl.org/dc/dcmitype/StillImage" /></cc:Work></rdf:RDF></metadata><sodipodi:namedview
   pagecolor="#ffffff"
   bordercolor="#666666"
   borderopacity="1"
   objecttolerance="10"
   gridtolerance="10"
   guidetolerance="10"
   inkscape:pageopacity="0"
   inkscape:pageshadow="2"
   inkscape:window-width="1920"
   inkscape:window-height="1016"
   id="namedview98"
   showgrid="false"
   inkscape:zoom="0.44740845"
   inkscape:cx="-145.49893"
   inkscape:cy="195.90525"
   inkscape:window-x="0"
   inkscape:window-y="0"
   inkscape:window-maximized="1"
   inkscape:current-layer="Слой_x0020_1" /> <defs
   id="defs21"> <style
   type="text/css"
   id="style2"> <![CDATA[ .fil11 {fill:#2B2A29;fill-rule:nonzero} .fil10 {fill:#1E75BB;fill-rule:nonzero} .fil0 {fill:#6D6E71;fill-rule:nonzero} .fil7 {fill:url(#id0)} .fil9 {fill:url(#id1)} .fil3 {fill:url(#id2)} .fil1 {fill:url(#id3)} .fil2 {fill:url(#id4)} .fil6 {fill:url(#id5)} .fil8 {fill:url(#id6)} .fil4 {fill:url(#id7)} .fil5 {fill:url(#id8)} ]]> </style>
    <linearGradient
   id="id0"
   gradientUnits="userSpaceOnUse"
   x1="7914.2598"
   y1="9573.7305"
   x2="7889.2202"
   y2="7918.1099"> <stop
   offset="0"
   style="stop-opacity:1; stop-color:white"
   id="stop4" />
        <stop
   offset="0.141176"
   style="stop-opacity:1; stop-color:#1E75BB"
   id="stop6" />
        <stop
   offset="0.85098"
   style="stop-opacity:1; stop-color:#1E75BB"
   id="stop8" />
        <stop
   offset="1"
   style="stop-opacity:1; stop-color:white"
   id="stop10" /> </linearGradient>
    <linearGradient
   id="id1"
   gradientUnits="userSpaceOnUse"
   xlink:href="#id0"
   x1="3717.02"
   y1="2320.21"
   x2="3642.6899"
   y2="692.77002"> </linearGradient>
    <linearGradient
   id="id2"
   gradientUnits="userSpaceOnUse"
   xlink:href="#id0"
   x1="5799.1802"
   y1="4518.5601"
   x2="5799.1802"
   y2="1323.99"> </linearGradient>
    <linearGradient
   id="id3"
   gradientUnits="userSpaceOnUse"
   xlink:href="#id0"
   x1="1645.04"
   y1="6568.98"
   x2="1645.04"
   y2="3518.05"> </linearGradient>
    <linearGradient
   id="id4"
   gradientUnits="userSpaceOnUse"
   xlink:href="#id0"
   x1="9872.2803"
   y1="6568.98"
   x2="9872.2803"
   y2="3374.3999"> </linearGradient>
    <linearGradient
   id="id5"
   gradientUnits="userSpaceOnUse"
   xlink:href="#id0"
   x1="7799.5298"
   y1="7167.1299"
   x2="7898.3398"
   y2="5560.1201"> </linearGradient>
    <linearGradient
   id="id6"
   gradientUnits="userSpaceOnUse"
   xlink:href="#id0"
   x1="3702.6101"
   y1="7273.9399"
   x2="3677.5601"
   y2="5618.3198"> </linearGradient>
    <linearGradient
   id="id7"
   gradientUnits="userSpaceOnUse"
   xlink:href="#id0"
   x1="7759.52"
   y1="2281.3501"
   x2="7854.6899"
   y2="671.96002"> </linearGradient>
    <linearGradient
   id="id8"
   gradientUnits="userSpaceOnUse"
   xlink:href="#id0"
   x1="3586.75"
   y1="9534.9697"
   x2="3601.23"
   y2="7879.6699"> </linearGradient> <linearGradient
   inkscape:collect="always"
   xlink:href="#id0"
   id="linearGradient3828"
   gradientUnits="userSpaceOnUse"
   x1="7914.2598"
   y1="9573.7305"
   x2="7889.2202"
   y2="7918.1099" /></defs>
    <g
   id="Слой_x0020_1"> <metadata
   id="CorelCorpID_0Corel-Layer" />
        <g
   id="_1643238227424"> <path
   class="fil0"
   d="M 5864.43,879.99 H 5692.1 c -13.76,0 -25.37,-3.99 -24.73,-11.68 0.46,-7.59 16.47,-36.58 16.47,-36.58 3.25,-7.59 11.05,-11.68 24.7,-11.68 h 139.49 c 13.65,0 19.36,4.94 24.73,11.68 0,0 17.07,30.62 16.51,36.58 -0.57,6.07 -11.05,11.68 -24.84,11.68 z m 359.66,-187.47 c -25.44,-31.43 -51.26,-54.01 -114.66,-54.01 h -646.95 c -63.36,0 -99.45,18.84 -114.66,54.01 0,0 -73.9,134.51 -76.48,169.93 -2.54,35.32 51.26,53.8 114.65,53.8 h 799.93 c 63.25,0 112.14,-26.1 114.54,-53.8 2.68,-27.83 -76.37,-169.93 -76.37,-169.93 z"
   id="path24"
   inkscape:connector-curvature="0"
   style="fill:#6d6e71;fill-rule:nonzero" />
            <path
   class="fil0"
   d="m 6092.78,180.26 h -365.51 v -40.67 h 365.51 z m 0,86.93 h -365.51 v -40.43 h 365.51 z m 0,87.06 h -365.51 v -40.53 h 365.51 z m 0,87 h -365.54 -245.79 v -40.57 h 245.79 365.54 z M 5477.64,139.59 h 195.3 v 212.94 h -195.3 z M 6109.43,0 h -646.95 c -63.54,0 -114.8,51.22 -114.8,114.58 v 361.7 c 0,63.29 51.26,114.69 114.8,114.69 h 646.95 c 63.4,0 114.66,-51.4 114.66,-114.69 V 114.58 C 6224.09,51.22 6172.83,0 6109.43,0 Z"
   id="path26"
   inkscape:connector-curvature="0"
   style="fill:#6d6e71;fill-rule:nonzero" />
            <path
   class="fil0"
   d="M 5864.43,5673.51 H 5692.1 c -13.76,0 -25.37,-3.99 -24.73,-11.68 0.46,-7.59 16.47,-36.58 16.47,-36.58 3.25,-7.59 11.05,-11.68 24.7,-11.68 h 139.49 c 13.65,0 19.36,4.94 24.73,11.68 0,0 17.07,30.62 16.51,36.58 -0.57,6.07 -11.05,11.68 -24.84,11.68 z m 359.66,-187.47 c -25.44,-31.43 -51.26,-54.01 -114.66,-54.01 h -646.95 c -63.36,0 -99.45,18.84 -114.66,54.01 0,0 -73.9,134.51 -76.48,169.93 -2.54,35.32 51.26,53.8 114.65,53.8 h 799.93 c 63.25,0 112.14,-26.1 114.54,-53.8 2.68,-27.83 -76.37,-169.93 -76.37,-169.93 z"
   id="path28"
   inkscape:connector-curvature="0"
   style="fill:#6d6e71;fill-rule:nonzero" />
            <path
   class="fil0"
   d="m 6092.78,4973.81 h -365.51 v -40.68 h 365.51 z m 0,86.92 h -365.51 v -40.42 h 365.51 z m 0,87.03 h -365.51 v -40.53 h 365.51 z m 0,87 h -365.54 -245.79 v -40.54 h 245.79 365.54 z m -615.14,-301.63 h 195.3 v 212.94 h -195.3 z m 631.79,-139.63 h -646.95 c -63.54,0 -114.8,51.23 -114.8,114.59 v 361.7 c 0,63.29 51.26,114.69 114.8,114.69 h 646.95 c 63.4,0 114.66,-51.4 114.66,-114.69 v -361.7 c 0,-63.36 -51.26,-114.59 -114.66,-114.59 z"
   id="path30"
   inkscape:connector-curvature="0"
   style="fill:#6d6e71;fill-rule:nonzero" />
            <path
   class="fil0"
   d="m 6092.78,9342.44 h -365.51 v -40.67 h 365.51 z m 0,86.93 h -365.51 v -40.43 h 365.51 z m 0,87.1 h -365.51 v -40.54 h 365.51 z m 0,86.92 h -365.54 -245.79 v -40.53 h 245.79 365.54 z M 5477.64,9301.8 h 195.3 v 212.94 h -195.3 z m 631.79,-139.66 h -646.95 c -63.54,0 -114.8,51.26 -114.8,114.62 v 361.73 c 0,63.26 51.26,114.69 114.8,114.69 h 646.95 c 63.4,0 114.66,-51.43 114.66,-114.69 v -361.73 c 0,-63.36 -51.26,-114.62 -114.66,-114.62 z"
   id="path32"
   inkscape:connector-curvature="0"
   style="fill:#6d6e71;fill-rule:nonzero" />
            <path
   class="fil0"
   d="m 1742.53,3235.18 h -172.34 c -13.75,0 -25.36,-3.98 -24.73,-11.67 0.46,-7.59 16.48,-36.59 16.48,-36.59 3.21,-7.58 11.04,-11.67 24.69,-11.67 h 139.49 c 13.65,0 19.37,4.93 24.73,11.67 0,0 17.08,30.62 16.51,36.59 -0.56,6.06 -11.04,11.67 -24.83,11.67 z m 359.65,-187.46 c -25.43,-31.44 -51.26,-54.01 -114.65,-54.01 h -646.96 c -63.39,0 -99.45,18.83 -114.65,54.01 0,0 -73.91,134.51 -76.48,169.93 -2.54,35.31 51.25,53.8 114.65,53.8 h 799.92 c 63.26,0 112.15,-26.11 114.55,-53.8 2.68,-27.83 -76.38,-169.93 -76.38,-169.93 z"
   id="path34"
   inkscape:connector-curvature="0"
   style="fill:#6d6e71;fill-rule:nonzero" />
            <path
   class="fil0"
   d="m 1970.88,2535.48 h -365.51 v -40.68 h 365.51 z m 0,86.92 h -365.51 v -40.42 h 365.51 z m 0,87.07 h -365.51 v -40.53 h 365.51 z m 0,86.96 h -365.55 -245.81 v -40.53 h 245.81 365.55 z M 1355.74,2494.8 h 195.3 v 212.94 h -195.3 z m 631.76,-139.63 h -646.93 c -63.5,0 -114.79,51.23 -114.79,114.62 v 361.71 c 0,63.28 51.29,114.68 114.79,114.68 h 646.93 c 63.39,0 114.69,-51.4 114.69,-114.68 v -361.71 c 0,-63.39 -51.3,-114.62 -114.69,-114.62 z"
   id="path36"
   inkscape:connector-curvature="0"
   style="fill:#6d6e71;fill-rule:nonzero" />
            <path
   class="fil0"
   d="m 9917.95,3235.18 h -172.34 c -13.75,0 -25.36,-3.98 -24.73,-11.67 0.46,-7.59 16.44,-36.59 16.44,-36.59 3.25,-7.58 11.08,-11.67 24.73,-11.67 h 139.49 c 13.65,0 19.37,4.93 24.73,11.67 0,0 17.08,30.62 16.51,36.59 -0.56,6.06 -11.04,11.67 -24.83,11.67 z m 359.65,-187.46 c -25.43,-31.44 -51.26,-54.01 -114.65,-54.01 h -646.96 c -63.39,0 -99.45,18.83 -114.65,54.01 0,0 -73.91,134.51 -76.48,169.93 -2.54,35.31 51.25,53.8 114.65,53.8 h 799.92 c 63.26,0 112.15,-26.11 114.51,-53.8 2.72,-27.83 -76.34,-169.93 -76.34,-169.93 z"
   id="path38"
   inkscape:connector-curvature="0"
   style="fill:#6d6e71;fill-rule:nonzero" />
            <path
   class="fil0"
   d="m 10146.27,2535.48 h -365.51 v -40.68 h 365.51 z m 0,86.92 h -365.51 v -40.42 h 365.51 z m 0,87.07 h -365.51 v -40.53 h 365.51 z m 0,86.96 h -365.51 -245.82 v -40.53 h 245.82 365.51 z m -615.1,-301.63 h 195.3 v 212.94 h -195.3 z m 631.75,-139.63 h -646.96 c -63.5,0 -114.76,51.23 -114.76,114.62 v 361.71 c 0,63.28 51.26,114.68 114.76,114.68 h 646.96 c 63.4,0 114.69,-51.4 114.69,-114.68 v -361.71 c 0,-63.39 -51.29,-114.62 -114.69,-114.62 z"
   id="path40"
   inkscape:connector-curvature="0"
   style="fill:#6d6e71;fill-rule:nonzero" />
            <path
   class="fil0"
   d="m 1742.53,7557.67 h -172.34 c -13.75,0 -25.36,-3.98 -24.73,-11.67 0.46,-7.59 16.48,-36.59 16.48,-36.59 3.21,-7.58 11.04,-11.67 24.69,-11.67 h 139.49 c 13.65,0 19.37,4.93 24.73,11.67 0,0 17.08,30.62 16.51,36.59 -0.56,6.06 -11.04,11.67 -24.83,11.67 z m 359.65,-187.46 c -25.43,-31.44 -51.26,-54.01 -114.65,-54.01 h -646.96 c -63.39,0 -99.45,18.83 -114.65,54.01 0,0 -73.91,134.51 -76.48,169.93 -2.54,35.31 51.25,53.8 114.65,53.8 h 799.92 c 63.26,0 112.15,-26.11 114.55,-53.8 2.68,-27.83 -76.38,-169.93 -76.38,-169.93 z"
   id="path42"
   inkscape:connector-curvature="0"
   style="fill:#6d6e71;fill-rule:nonzero" />
            <path
   class="fil0"
   d="m 1970.88,6857.97 h -365.51 v -40.68 h 365.51 z m 0,86.92 h -365.51 v -40.42 h 365.51 z m 0,87.07 h -365.51 v -40.53 h 365.51 z m 0,86.96 h -365.55 -245.81 v -40.53 h 245.81 365.55 z m -615.14,-301.63 h 195.3 v 212.94 h -195.3 z m 631.76,-139.62 h -646.93 c -63.5,0 -114.79,51.22 -114.79,114.61 v 361.71 c 0,63.28 51.29,114.68 114.79,114.68 h 646.93 c 63.39,0 114.69,-51.4 114.69,-114.68 v -361.71 c 0,-63.39 -51.3,-114.61 -114.69,-114.61 z"
   id="path44"
   inkscape:connector-curvature="0"
   style="fill:#6d6e71;fill-rule:nonzero" />
            <path
   class="fil0"
   d="m 9925.09,7557.67 h -172.33 c -13.76,0 -25.37,-3.98 -24.73,-11.67 0.46,-7.59 16.47,-36.59 16.47,-36.59 3.21,-7.58 11.04,-11.67 24.7,-11.67 h 139.49 c 13.65,0 19.36,4.93 24.73,11.67 0,0 17.07,30.62 16.51,36.59 -0.57,6.06 -11.05,11.67 -24.84,11.67 z m 359.69,-187.46 c -25.47,-31.44 -51.29,-54.01 -114.69,-54.01 h -646.96 c -63.39,0 -99.44,18.83 -114.65,54.01 0,0 -73.91,134.51 -76.48,169.93 -2.54,35.31 51.26,53.8 114.65,53.8 h 799.93 c 63.25,0 112.14,-26.11 114.51,-53.8 2.71,-27.83 -76.31,-169.93 -76.31,-169.93 z"
   id="path46"
   inkscape:connector-curvature="0"
   style="fill:#6d6e71;fill-rule:nonzero" />
            <path
   class="fil0"
   d="m 10153.43,6857.97 h -365.51 v -40.68 h 365.51 z m 0,86.92 h -365.51 v -40.42 h 365.51 z m 0,87.07 h -365.51 v -40.53 h 365.51 z m 0,86.96 H 9787.92 9542.1 v -40.53 h 245.82 365.51 z m -615.14,-301.63 h 195.3 v 212.94 h -195.3 z m 631.79,-139.62 h -646.96 c -63.5,0 -114.75,51.22 -114.75,114.61 v 361.71 c 0,63.28 51.25,114.68 114.75,114.68 h 646.96 c 63.4,0 114.69,-51.4 114.69,-114.68 v -361.71 c 0,-63.39 -51.29,-114.61 -114.69,-114.61 z"
   id="path48"
   inkscape:connector-curvature="0"
   style="fill:#6d6e71;fill-rule:nonzero" />
            <polygon
   class="fil1"
   points="1600.18,6569.01 1689.86,6569.01 1689.86,3518.04 1600.18,3518.04 "
   id="polygon50"
   style="fill:url(#id3)" />
            <polygon
   class="fil2"
   points="9917.07,6569.01 9917.07,3374.39 9827.54,3374.39 9827.54,6569.01 "
   id="polygon52"
   style="fill:url(#id4)" />
            <polygon
   class="fil3"
   points="5843.93,4518.55 5843.93,1324.01 5754.39,1324.01 5754.39,4518.55 "
   id="polygon54"
   style="fill:url(#id2)" />
            <polygon
   class="fil4"
   points="8987.4,2203.3 9031.81,2125.45 6626.96,750 6582.4,827.86 "
   id="polygon56"
   style="fill:url(#id7)" />
            <polygon
   class="fil5"
   points="4930.19,9523.1 4974.68,9445.24 2257.87,7891.54 2213.31,7969.4 "
   id="polygon58"
   style="fill:url(#id8)" />
            <polygon
   class="fil6"
   points="9021.97,7086.11 9066.45,7008.25 6676.03,5641.16 6631.44,5719.02 "
   id="polygon60"
   style="fill:url(#id5)" />
            <polygon
   class="fil7"
   points="6587.27,9553.33 9260.83,8016.25 9216,7938.56 6542.68,9475.58 "
   id="polygon62"
   style="fill:url(#linearGradient3828)" />
            <polygon
   class="fil8"
   points="2375.62,7253.5 5049.15,5716.44 5004.31,5638.76 2331,7175.79 "
   id="polygon64"
   style="fill:url(#id6)" />
            <polygon
   class="fil9"
   points="2460.01,2259.57 4944.34,831.03 4899.61,753.35 2415.38,2181.82 "
   id="polygon66"
   style="fill:url(#id1)" />
            <path
   class="fil0"
   d="m 5317.5,8398.49 c 4.38,70.17 -73.23,170.67 -199.95,248.6 -289.39,177.98 -674.62,191.49 -954.87,25.69 -258.44,-152.86 -298.73,-377.86 22.69,-575.53 124.03,-76.27 270.54,-116.73 379.27,-119.98 l 59.58,149.48 c -80.22,13.68 -157.94,30.44 -245.99,84.59 -144.04,88.55 -166.26,217.03 11.18,321.98 159.42,94.34 387.25,90.7 555.31,-12.63 66.68,-40.99 119.45,-98.28 137.13,-163.47 z"
   id="path68"
   inkscape:connector-curvature="0"
   style="fill:#6d6e71;fill-rule:nonzero" />
            <path
   class="fil0"
   d="m 5956.12,7664.44 c 275.17,162.77 205.64,340.46 5.61,463.51 -240.06,147.64 -539.22,171.84 -802.81,15.91 l -519.4,-307.27 213.36,-131.23 475.72,281.41 c 140.16,82.9 290.9,118.99 440.27,27.06 129.36,-79.55 76.76,-157.3 -67.24,-242.5 l -487.33,-288.26 213.43,-131.19 z"
   id="path70"
   inkscape:connector-curvature="0"
   style="fill:#6d6e71;fill-rule:nonzero" />
            <path
   class="fil0"
   d="m 6403.88,7398.42 168.42,99.63 c 18.52,-6.71 39.72,-15.1 79.72,-39.73 82.7,-50.83 89.33,-96.8 28.93,-132.53 -56.62,-33.48 -125.02,-20.89 -194.38,21.76 z m -343.32,-203.06 163.3,96.59 70.69,-43.49 c 54.69,-33.59 76.84,-73.59 11.26,-112.4 -53.98,-31.96 -131.62,-16.76 -183.66,15.24 -26.67,16.44 -40.14,27.76 -61.59,44.06 z m -403.65,18.63 c 49.46,-33.48 173.67,-116.1 275.06,-178.44 222.71,-136.94 412.4,-134.16 537.1,-60.36 93.84,55.5 119.52,115.72 93.88,184.26 l 2.54,1.52 c 92.46,-27.41 223.38,-28.79 339.09,39.65 189.02,111.79 125.69,257.77 -77.05,382.45 -89.36,54.96 -215.93,129.71 -275.77,160.3 z"
   id="path72"
   inkscape:connector-curvature="0"
   style="fill:#6d6e71;fill-rule:nonzero" />
            <polygon
   class="fil0"
   points="7341.59,6598.34 7534.42,6712.43 7234.35,6896.97 7397.65,6993.56 7751.06,6776.25 7943.92,6890.34 7377.08,7238.88 6477.11,6706.5 7030.62,6366.14 7223.45,6480.2 6883.37,6689.36 7041.52,6782.88 "
   id="polygon74"
   style="fill:#6d6e71;fill-rule:nonzero" />
            <polygon
   class="fil0"
   points="3194.72,2567.65 3908.46,2975.96 3908.46,2166.86 "
   id="polygon76"
   style="fill:#6d6e71;fill-rule:nonzero" />
            <polygon
   class="fil10"
   points="3131.75,6001.09 3908.47,5564.94 3908.47,3101 3131.75,2656.71 "
   id="polygon78"
   style="fill:#1e75bb;fill-rule:nonzero" />
            <polygon
   class="fil10"
   points="8141.4,5828.79 8141.4,3426.61 7435.28,3822.92 7435.28,5425.38 "
   id="polygon80"
   style="fill:#1e75bb;fill-rule:nonzero" />
            <polygon
   class="fil0"
   points="8450.85,3477.52 9059.56,3135.82 6648.61,1755.68 6648.61,2445.19 7435.27,2897.31 7435.27,3704.5 8141.39,3300.71 "
   id="polygon82"
   style="fill:#6d6e71;fill-rule:nonzero" />
            <polygon
   class="fil10"
   points="9068.1,3249.56 8555.44,3537.28 9068.1,3830.2 "
   id="polygon84"
   style="fill:#1e75bb;fill-rule:nonzero" /> </g>
        <path
   class="fil0"
   d="M 5864.43,10042.17 H 5692.1 c -13.76,0 -25.37,-3.98 -24.73,-11.67 0.46,-7.59 16.47,-36.59 16.47,-36.59 3.25,-7.58 11.05,-11.67 24.7,-11.67 h 139.49 c 13.65,0 19.36,4.94 24.73,11.67 0,0 17.07,30.63 16.51,36.59 -0.57,6.06 -11.05,11.67 -24.84,11.67 z m 359.66,-187.46 c -25.44,-31.43 -51.26,-54.01 -114.66,-54.01 h -646.95 c -63.36,0 -99.45,18.84 -114.66,54.01 0,0 -73.9,134.51 -76.48,169.93 -2.54,35.31 51.26,53.8 114.65,53.8 h 799.93 c 63.25,0 112.14,-26.11 114.54,-53.8 2.68,-27.83 -76.37,-169.93 -76.37,-169.93 z"
   id="path87"
   inkscape:connector-curvature="0"
   style="fill:#6d6e71;fill-rule:nonzero" />
        <path
   class="fil0"
   d="m 2097.01,11195.86 h 369.35 v 87.72 h 109.71 v -197.43 h -69.48 v -402.32 h -116.96 v 402.32 h -175.66 v -402.32 h -116.96 z m 559.73,0 h 310.87 v -109.71 H 2773.7 v -92.9 h 164.67 v -109.71 H 2773.7 v -90 h 186.65 v -109.71 h -303.61 z m 724.18,0 h 116.96 v -512.03 h -116.96 v 195.98 h -186.65 v -195.98 h -116.96 v 512.03 h 116.96 v -206.35 h 186.65 z m 189.96,-402.32 h 153.67 v 402.32 h 117.17 v -402.32 h 153.47 v -109.71 h -424.31 z m 614.68,402.32 v -174.2 c 18.25,2.28 46.04,2.28 57.03,2.28 118.63,0 189.55,-80.47 189.55,-171.92 0,-88.56 -51.22,-169.85 -207.17,-169.85 -39.41,0 -127.96,1.66 -156.37,1.66 v 512.03 z m 51.23,-403.78 c 41.68,0 70.92,13.9 70.92,59.11 0,49.77 -37.95,63.04 -68.85,63.04 -16.8,0 -36.5,-1.45 -53.3,-3.73 v -116.96 c 24.06,-0.83 35.88,-1.46 51.23,-1.46 z m 511.29,403.78 h 369.35 v 87.72 h 109.71 v -197.43 h -69.48 v -402.32 H 5040.7 v 402.32 h -175.66 v -402.32 h -116.96 z m 661.97,0 226.88,-318.33 v 318.33 h 116.96 v -512.03 h -102.24 l -226.88,318.13 v -318.13 h -116.96 v 512.03 z m 659.27,5.81 h 116.97 v -68.65 c 136.25,-1.45 229.16,-73.2 229.16,-200.54 0,-125.05 -96.02,-197.63 -229.16,-200.54 v -54.13 h -116.97 v 54.13 c -134.59,3.73 -227.5,74.04 -227.5,200.54 0,127.96 90.63,199.09 227.5,200.54 z m 221.7,-269.19 c 0,59.94 -27.79,91.46 -104.73,92.91 v -185.82 c 78.39,2.29 104.73,44.59 104.73,92.91 z m -324.77,0 c 0,-49.77 28.41,-90.62 103.07,-92.91 v 185.82 c -71.75,-1.45 -103.07,-33.6 -103.07,-92.91 z m 653.88,263.38 v -174.2 c 18.25,2.28 46.04,2.28 57.03,2.28 118.63,0 189.55,-80.47 189.55,-171.92 0,-88.56 -51.22,-169.85 -207.17,-169.85 -39.41,0 -127.96,1.66 -156.37,1.66 v 512.03 z m 51.23,-403.78 c 41.68,0 70.92,13.9 70.92,59.11 0,49.77 -37.95,63.04 -68.85,63.04 -16.8,0 -36.5,-1.45 -53.3,-3.73 v -116.96 c 24.06,-0.83 35.88,-1.46 51.23,-1.46 z m 253.83,147.66 c 0,163.21 116.34,264.83 272.09,264.83 155.95,0 272.29,-109.71 272.29,-264.83 0,-163 -116.34,-264.83 -272.29,-264.83 -163,0 -272.09,116.34 -272.09,264.83 z m 124.43,0 c 0,-93.53 62.84,-155.12 147.66,-155.12 82.75,0 147.86,61.59 147.86,155.12 0,86.48 -50.39,155.12 -147.86,155.12 -81.92,0 -147.66,-67.19 -147.66,-155.12 z m 515.15,254.67 c 29.86,2.9 97.88,4.35 147.03,4.35 111.16,0 194.53,-50.39 194.53,-158.02 0,-65.74 -35.88,-103.07 -73.21,-116.97 v -1.45 c 38.16,-24.89 58.49,-60.76 58.49,-114.27 0,-70.92 -49.57,-127.33 -171.93,-127.33 -55.57,0 -126.5,3.11 -154.91,4.56 z m 162.38,-205.52 c 37.95,0 62.21,13.9 62.21,46.04 0,34.43 -22.81,54.13 -68.22,54.13 -21.78,0 -31.32,-2.28 -39.41,-4.36 v -95.81 z m -8.92,-198.26 c 28.62,0 56.41,15.35 56.41,46.04 0,37.33 -24.06,49.77 -54.13,49.77 h -38.78 v -92.9 c 13.07,-1.46 21.99,-2.91 36.5,-2.91 z m 261.3,149.11 c 0,163.21 116.34,264.83 272.09,264.83 155.95,0 272.29,-109.71 272.29,-264.83 0,-163 -116.34,-264.83 -272.29,-264.83 -163,0 -272.09,116.34 -272.09,264.83 z m 124.43,0 c 0,-93.53 62.84,-155.12 147.66,-155.12 82.75,0 147.86,61.59 147.86,155.12 0,86.48 -50.39,155.12 -147.86,155.12 -81.92,0 -147.66,-67.19 -147.66,-155.12 z m 515.15,256.12 h 116.96 v -402.32 h 175.66 v -109.71 h -292.62 z m 318.81,-256.12 c 0,163.21 116.34,264.83 272.09,264.83 155.95,0 272.29,-109.71 272.29,-264.83 0,-163 -116.34,-264.83 -272.29,-264.83 -163,0 -272.09,116.34 -272.09,264.83 z m 124.43,0 c 0,-93.53 62.84,-155.12 147.66,-155.12 82.75,0 147.86,61.59 147.86,155.12 0,86.48 -50.39,155.12 -147.86,155.12 -81.92,0 -147.66,-67.19 -147.66,-155.12 z"
   id="path89"
   inkscape:connector-curvature="0"
   style="fill:#6d6e71;fill-rule:nonzero" />
        <path
   class="fil0"
   d="m 0,11817.66 c 0,163.21 116.34,264.83 272.09,264.83 155.95,0 272.29,-109.71 272.29,-264.83 0,-163 -116.34,-264.83 -272.29,-264.83 -163,0 -272.09,116.34 -272.09,264.83 z m 124.43,0 c 0,-93.53 62.84,-155.12 147.66,-155.12 82.75,0 147.86,61.59 147.86,155.12 0,86.48 -50.39,155.12 -147.86,155.12 -81.92,0 -147.66,-67.19 -147.66,-155.12 z m 515.15,256.12 c 29.86,0 75.28,3.73 142.47,3.73 128.16,0 199.09,-64.49 199.09,-171.3 0,-96.64 -67.4,-158.02 -166.12,-158.02 -15.96,0 -44.58,1.45 -58.48,4.35 v -81.08 h 191.63 v -109.71 H 639.58 Z m 165.91,-215.89 c 42.51,0 58.68,27.17 58.68,57.03 0,28.62 -15.55,52.68 -63.66,52.68 -13.27,0 -24.89,-1.45 -43.97,-3.53 v -101.82 c 17.63,-2.91 34.43,-4.36 48.95,-4.36 z m 402.52,215.89 v -174.2 c 18.25,2.28 46.04,2.28 57.03,2.28 118.63,0 189.55,-80.47 189.55,-171.92 0,-88.56 -51.22,-169.85 -207.17,-169.85 -39.41,0 -127.96,1.66 -156.37,1.66 v 512.03 z m 51.23,-403.78 c 41.68,0 70.92,13.9 70.92,59.11 0,49.77 -37.95,63.04 -68.85,63.04 -16.8,0 -36.5,-1.45 -53.3,-3.73 v -116.96 c 24.06,-0.83 35.88,-1.46 51.23,-1.46 z m 177.77,403.78 h 117.79 l 42.52,-107.63 h 202.61 l 42.31,107.63 h 125.26 l -212.99,-512.03 h -104.52 z m 261.93,-362.09 57.03,144.75 h -114.89 z m 474.08,370.8 c 91.45,0 183.74,-57.65 183.74,-152.01 0,-58.69 -23.43,-103.28 -84.2,-122.36 v -2.07 c 46.04,-30.7 64.5,-72.38 64.5,-109.09 0,-93.53 -66.57,-144.13 -158.03,-144.13 -75.49,0 -140.6,36.71 -173.58,84.2 l 67.4,79.01 c 27.17,-38.16 57.03,-53.5 90.63,-53.5 32.97,0 56.41,15.34 56.41,47.7 0,32.14 -29.24,46.66 -62.84,46.66 h -43.97 v 109.91 h 46.87 c 55.58,0 79.64,21.78 79.64,51.85 0,41.68 -40.23,54.12 -71.55,54.12 -41.68,0 -85.03,-28.41 -114.89,-62.21 l -63.67,79.84 c 26.96,40.86 79.64,92.08 183.54,92.08 z m 256.74,-264.83 c 0,163.21 116.34,264.83 272.09,264.83 155.95,0 272.29,-109.71 272.29,-264.83 0,-163 -116.34,-264.83 -272.29,-264.83 -163,0 -272.09,116.34 -272.09,264.83 z m 124.43,0 c 0,-93.53 62.84,-155.12 147.66,-155.12 82.75,0 147.86,61.59 147.86,155.12 0,86.48 -50.39,155.12 -147.86,155.12 -81.92,0 -147.66,-67.19 -147.66,-155.12 z m 515.15,254.67 c 29.86,2.9 97.88,4.35 147.03,4.35 111.16,0 194.53,-50.39 194.53,-158.02 0,-65.74 -35.88,-103.07 -73.21,-116.97 v -1.45 c 38.16,-24.89 58.49,-60.76 58.49,-114.27 0,-70.92 -49.57,-127.33 -171.93,-127.33 -55.57,0 -126.5,3.11 -154.91,4.56 z m 162.38,-205.52 c 37.95,0 62.21,13.9 62.21,46.04 0,34.43 -22.81,54.13 -68.22,54.13 -21.78,0 -31.32,-2.28 -39.41,-4.36 v -95.81 z m -8.92,-198.26 c 28.62,0 56.41,15.35 56.41,46.04 0,37.33 -24.06,49.77 -54.13,49.77 h -38.78 v -92.9 c 13.07,-1.46 21.99,-2.91 36.5,-2.91 z m 232.06,405.23 h 117.79 l 42.52,-107.63 h 202.61 l 42.31,107.63 h 125.26 l -212.99,-512.03 h -104.52 z m 261.93,-362.09 57.03,144.75 h -114.89 z m 638.12,362.09 h 116.96 v -512.03 h -116.96 v 195.98 h -186.65 v -195.98 H 4051.3 v 512.03 h 116.96 v -206.35 h 186.65 z m 350.89,0 226.88,-318.33 v 318.33 h 116.96 v -512.03 H 4947.4 l -226.88,318.13 v -318.13 h -116.96 v 512.03 z m 697.22,0 h 117.18 v -512.03 c -30.07,0 -103.9,-3.11 -136.05,-3.11 -158.85,0 -220.24,88.55 -220.24,185.19 0,69.48 35.88,114.06 79.01,139.78 l -120.07,190.17 h 131.07 l 97.26,-164.66 h 51.84 z m -61.38,-274.37 c -27.79,-5.81 -53.3,-25.51 -53.3,-63.67 0,-42.3 33.6,-67.19 72.38,-67.19 8.09,0 35.05,1.45 42.3,2.91 v 127.95 z m 397.97,362.09 h 109.7 v -87.72 h 317.72 v 87.72 h 109.7 v -197.43 h -69.47 v -402.32 h -334.51 l -4.36,102.24 c -7.25,167.57 -53.29,273.75 -73.82,300.08 h -54.96 z m 238.49,-403.77 8.09,-86.27 h 103.9 v 292.61 h -166.74 c 17.42,-22.81 46.87,-117.79 54.75,-206.34 z m 379.1,316.05 h 310.87 v -109.71 h -193.91 v -92.9 h 164.67 v -109.71 h -164.67 v -90 h 186.65 v -109.71 H 6357.2 Z m 361.88,-402.32 h 153.67 v 402.32 h 117.17 v -402.32 h 153.47 v -109.71 h -424.31 z m 497.72,402.32 h 310.87 v -109.71 h -193.91 v -92.9 h 164.67 v -109.71 h -164.67 v -90 h 186.65 v -109.71 H 7216.8 Z m 522.81,0 226.88,-318.33 v 318.33 h 116.96 v -512.03 h -102.24 l -226.88,318.13 v -318.13 h -116.96 v 512.03 z m -21.78,-643.72 c 0,70.1 56.2,116.96 154.92,116.96 91.46,0 153.67,-46.03 152.22,-116.96 h -109.71 c 0,31.32 -14.51,36.5 -42.51,36.5 -32.15,0 -45.21,-8.71 -45.21,-36.5 z m 914.56,634.18 74.66,-62.21 -94.36,-111.16 94.36,-109.71 -71.13,-63.67 -149.94,171.93 v 2.9 z m -168.39,0 74.66,-62.21 -94.36,-111.16 94.36,-109.71 -70.93,-63.67 -149.94,171.93 v 2.9 z m 338.04,9.54 H 8919 v -512.03 h -116.96 z m 197.43,-402.32 h 153.67 v 402.32 h 117.17 v -402.32 h 153.47 v -109.71 h -424.31 z m 468.27,194.52 h 193.28 v -102.45 h -193.28 z m 295.73,207.8 h 116.96 v -243.68 l 174.83,243.68 h 148.48 l -207.79,-275.82 192.45,-236.21 H 10048 l -167.57,223.14 v -223.14 h -116.96 z m 945.87,-512.03 h -117.79 l -103.9,250.1 -144.13,-250.1 H 10211 l 220.24,366.45 -6.64,15.34 c -6.42,14.73 -18.87,20.53 -37.95,20.53 -14.72,0 -21.98,-2.9 -35.87,-12.44 l -40.86,99.55 c 13.9,10.99 47.49,22.6 77.35,22.6 71.14,0 114.9,-43.14 150.15,-121.53 z m 73.21,512.03 c 29.86,0 75.28,3.73 142.47,3.73 128.16,0 199.09,-64.49 199.09,-171.3 0,-96.64 -67.4,-158.02 -166.12,-158.02 -15.96,0 -44.58,1.45 -58.48,4.35 v -81.08 h 191.63 v -109.71 h -308.59 z m 165.91,-215.89 c 42.51,0 58.68,27.17 58.68,57.03 0,28.62 -15.55,52.68 -63.66,52.68 -13.27,0 -24.89,-1.45 -43.97,-3.53 v -101.82 c 17.63,-2.91 34.43,-4.36 48.95,-4.36 z m 630.85,34.43 v -2.9 l -150.14,-171.93 -70.93,63.67 94.36,109.71 -94.36,111.16 74.66,62.21 z m -168.39,0 v -2.9 l -149.94,-171.93 -70.93,63.67 94.36,109.71 -94.36,111.16 74.66,62.21 z"
   id="path91"
   inkscape:connector-curvature="0"
   style="fill:#6d6e71;fill-rule:nonzero" />
         <text
   xml:space="preserve"
   style="font-style:normal;font-weight:normal;font-size:1058.33532715px;line-height:1.25;font-family:sans-serif;letter-spacing:0px;word-spacing:0px;fill:#000000;fill-opacity:1;stroke:none;stroke-width:26.45838356"
   x="1548.49"
   y="13702.329"
   id="text123"><tspan
     sodipodi:role="line"
     id="tspan121"
     x="1548.49"
     y="14638.708"
     style="stroke-width:26.45838356" /></text>
</g> </svg>